PathFileType	4	(X/Y/Z)	C:\Users\°ÂÌØÂü\Desktop\20210112\bx_n_0_902-Unnamed.trc
DataRate	CameraRate	NumFrames	NumMarkers	Units	OrigDataRate	OrigDataStartFrame	OrigNumFrames
50.00	50.00	       5	0	mm	50.00	157	       416
Frame#	Time	
		

157	3.120	-263.46841	96.89338	1661.92053	-771.89142	246.56519	572.44189	-442.14133	267.84671	1411.09265	-668.20880	211.96313	796.18005	-675.90344	-14.26580	805.37604	-439.68567	-91.17539	1408.02722	-759.25043	272.93204	741.10016	-749.37134	70.99631	569.65332	-713.36511	13.56312	523.99091	-783.67963	253.70372	635.75043	-724.52118	67.98555	218.20984	-716.77893	201.59979	536.70209	-801.68683	261.28836	495.87039	-517.86359	-72.80309	143.04979	-548.95740	-23.88835	162.45091	-794.68152	37.28479	174.88284				-600.58429	28.97496	166.77760	-675.50958	53.43207	160.07869	-796.83838	182.88588	183.07529	-767.16138	229.18173	204.16895	-589.51978	206.65988	173.47542	-882.52759	296.23105	144.82651	-553.48340	241.51170	165.89542	-652.22327	291.62781	156.88571	-614.94916	297.13571	158.53410	-528.11682	303.73541	146.40401	-742.99683	141.01355	572.65796	-762.61389	-77.59534	871.64856	-799.09192	-49.56433	481.75052	-761.29437	-21.21452	205.50345	-875.95648	-78.79716	141.44162				-766.38177	-67.93988	753.32666	-766.70856	-39.36428	612.50983	-767.95880	-36.29202	566.04651	-718.37451	151.94749	219.70644	-676.46954	167.47325	159.75323	-605.92365	-71.78030	157.94781	-647.56146	-67.18005	162.39232	-484.36679	89.59643	1207.53101										-675.27496	229.26497	1041.47900	-767.81256	281.37781	874.79834				-868.28168	90.97063	1093.45190	-683.55994	-14.93573	1023.74054	
158	3.140	-255.18024	96.60134	1652.22791	-772.67688	246.38661	572.41516	-436.99081	267.23697	1403.66797	-670.11273	211.74463	796.50922	-677.83392	-13.91880	805.32806	-434.67899	-91.72362	1401.24561	-761.59912	271.92050	740.77765	-750.48083	70.96285	569.92780	-714.38477	13.17343	524.03259	-785.12286	253.67287	635.36768	-724.70148	67.79967	218.48697	-717.84760	201.28386	536.80249	-802.54980	261.27832	495.88696	-517.81085	-72.96118	143.22667	-548.95374	-23.84251	162.42786	-794.58093	36.98322	174.48381				-600.53992	28.99682	166.79239	-675.46729	53.31113	160.17992	-796.92255	182.73860	183.16856	-767.13776	229.41066	204.13345	-589.62152	206.80305	173.53883	-882.58459	296.17447	144.76222	-553.35730	241.68266	165.78223	-652.35870	291.64471	156.88440	-614.94055	296.96417	158.59357	-528.05914	303.63303	146.34142	-744.32086	140.53426	572.35406	-764.61670	-78.02488	871.43475	-800.40839	-49.77114	481.51270	-761.55469	-21.28856	205.26025	-876.08313	-78.85428	141.48308				-768.23376	-68.73547	753.24927	-767.88983	-39.56291	612.03998	-769.15875	-36.79732	565.98944	-719.07391	152.58286	219.02699	-676.34735	167.43565	159.89890	-606.00720	-71.88870	157.76601	-647.55798	-67.04002	162.16086	-483.15955	89.12532	1201.27490										-677.31677	228.28935	1040.14734	-770.57050	281.21716	874.40033				-869.80115	90.13659	1093.79419	-685.66589	-14.89178	1022.54980	
159	3.160	-246.76402	96.15501	1642.24951	-774.18005	246.34990	572.64209	-431.91370	267.02390	1396.89807	-672.56628	211.55510	796.36096	-680.03729	-14.59537	805.01990	-429.85153	-91.99916	1394.09363	-763.66626	272.15674	740.55615	-752.62006	70.13940	569.51270	-715.61346	12.96628	523.94391	-786.61609	253.38087	635.22998	-724.54669	67.45629	218.71042	-718.87689	201.07550	536.92786	-803.15369	261.59485	495.70898	-517.87982	-72.81231	143.03342	-549.01270	-23.75640	162.34262	-794.40222	36.72294	174.28624				-600.62610	28.90478	166.76700	-675.49316	53.20564	160.20093	-796.86475	182.94858	182.98965	-767.15643	229.46953	203.89905	-589.64990	206.67708	173.44315	-882.54590	296.12497	144.77463	-553.46954	241.36612	165.75327	-652.17920	291.58258	156.85724	-615.04510	296.95413	158.44507	-528.20459	304.00531	146.41139	-745.12366	140.41396	572.10419	-766.44403	-78.81075	871.45978	-801.18060	-50.61049	481.26074	-761.69073	-21.64419	205.32571	-875.89813	-78.59131	141.24451				-770.01959	-68.92774	753.12769	-769.36395	-40.28827	611.93042	-770.67877	-37.49987	565.78394	-718.73962	152.39494	219.29799	-676.57434	167.59906	159.68004	-605.99335	-71.80407	157.65355	-647.81116	-67.16354	162.10023	-482.06332	88.70835	1195.22668										-679.40594	228.60092	1039.97156	-772.64484	281.00873	874.30975				-871.23938	89.69477	1094.52844	-687.68250	-15.75398	1020.99390	
160	3.180	-238.61638	95.56075	1632.20752	-775.10095	246.14746	572.29156	-427.10519	266.09952	1389.36243	-674.26239	211.11841	796.78552	-681.73004	-14.49878	805.39307	-424.85553	-92.54771	1386.79846	-765.22510	272.01663	740.45410	-753.78259	69.82872	569.22516	-716.82086	12.53908	523.92743	-788.03577	253.57401	635.01880	-725.10223	67.34846	218.88516	-719.62085	200.96770	537.22955	-803.90656	261.26370	495.25967	-517.90387	-72.95454	143.08153	-549.17181	-23.81264	162.41470	-794.85004	36.59060	174.46295				-600.53491	28.91444	166.90222	-675.21918	53.06593	160.53226	-796.83972	183.01259	182.96893	-767.15643	229.46953	203.89905	-589.62726	206.77002	173.50049	-882.54260	295.98880	144.67081	-553.59814	241.40428	165.61607	-652.17920	291.58258	156.85724	-614.88910	296.98737	158.55624	-528.09192	303.81125	146.39215	-746.46442	140.27545	572.12866	-768.25183	-79.68433	871.68622	-802.13818	-50.96008	481.21631	-761.80963	-21.89981	205.18193	-875.98071	-78.68763	141.18704				-771.95239	-69.75655	752.90863	-770.62146	-40.74980	611.71558	-771.61279	-37.66811	565.67828	-718.95313	152.26448	219.07162	-676.60138	167.67784	159.80080	-605.91119	-71.89639	157.47420	-647.71057	-67.23662	161.96751	-480.97818	88.71415	1188.79761										-681.70093	227.97264	1038.92590	-774.96826	280.70480	874.46014				-872.70343	88.85896	1095.09473	-689.52911	-15.43670	1019.21960	
161	3.200	-230.66115	95.03069	1621.73462	-776.10571	245.85361	571.93542	-422.52313	265.56799	1381.87476	-676.32123	210.73129	796.71051	-683.77264	-15.16741	805.29321	-420.28815	-92.92986	1379.12891	-766.66577	271.96695	740.33875	-755.31018	69.25343	569.29980	-717.77069	11.86551	524.61243	-789.51556	253.82214	634.42438	-725.05927	67.22742	218.98558	-721.02289	200.70268	536.99774	-805.03986	261.45242	495.08020	-517.83282	-72.87903	143.14296	-549.21869	-23.49944	162.35905	-794.82800	36.05497	174.57715				-600.67072	29.05798	166.86151	-675.34509	52.88681	160.73505	-796.89063	183.04800	182.92241	-767.30957	229.73734	203.95889	-589.70038	206.80705	173.57448	-882.47882	295.99921	144.57645	-553.60181	241.38280	165.59082	-652.22327	291.62781	156.88571	-614.92169	296.89090	158.48619	-528.14056	303.81866	146.36078	-747.33649	139.71561	572.17419	-769.63617	-80.14532	871.69202	-802.82220	-51.68247	481.03381	-761.70551	-22.14154	204.89702	-875.89813	-78.59131	141.24451				-772.90656	-70.43406	752.67834	-771.73840	-40.99823	611.56195	-772.91205	-38.39390	565.56415	-718.90405	152.20874	219.41145	-676.41870	167.92761	160.30423	-605.98071	-71.82993	157.64299	-647.64600	-67.27239	162.04066	-480.09222	88.01856	1182.14771										-683.91571	228.09259	1037.93445	-777.28094	280.70596	874.27350				-873.95764	88.39871	1095.35059	-691.25122	-16.49969	1018.35480	
